<svg width="42" height="42" viewBox="0 0 42 42" fill="none" xmlns="http://www.w3.org/2000/svg">
<rect x="1" y="1" width="40" height="40" rx="20" stroke="#C6AC83"/>
<path d="M12 20C12 16.229 12 14.343 13.172 13.172C14.344 12.001 16.229 12 20 12H22C25.771 12 27.657 12 28.828 13.172C29.999 14.344 30 16.229 30 20V22C30 25.771 30 27.657 28.828 28.828C27.656 29.999 25.771 30 22 30H20C16.229 30 14.343 30 13.172 28.828C12.001 27.656 12 25.771 12 22V20Z" stroke="#C6AC83" stroke-width="2"/>
<path d="M25.5 18C26.3284 18 27 17.3284 27 16.5C27 15.6716 26.3284 15 25.5 15C24.6716 15 24 15.6716 24 16.5C24 17.3284 24.6716 18 25.5 18Z" fill="#C6AC83"/>
<path d="M21 24C22.6569 24 24 22.6569 24 21C24 19.3431 22.6569 18 21 18C19.3431 18 18 19.3431 18 21C18 22.6569 19.3431 24 21 24Z" stroke="#C6AC83" stroke-width="2"/>
</svg>
