<svg width="42" height="42" viewBox="0 0 42 42" fill="none" xmlns="http://www.w3.org/2000/svg">
<rect x="1" y="1" width="40" height="40" rx="20" stroke="#C6AC83"/>
<path d="M19 24L24.19 21L19 18V24ZM30.56 16.17C30.69 16.64 30.78 17.27 30.84 18.07C30.91 18.87 30.94 19.56 30.94 20.16L31 21C31 23.19 30.84 24.8 30.56 25.83C30.31 26.73 29.73 27.31 28.83 27.56C28.36 27.69 27.5 27.78 26.18 27.84C24.88 27.91 23.69 27.94 22.59 27.94L21 28C16.81 28 14.2 27.84 13.17 27.56C12.27 27.31 11.69 26.73 11.44 25.83C11.31 25.36 11.22 24.73 11.16 23.93C11.09 23.13 11.06 22.44 11.06 21.84L11 21C11 18.81 11.16 17.2 11.44 16.17C11.69 15.27 12.27 14.69 13.17 14.44C13.64 14.31 14.5 14.22 15.82 14.16C17.12 14.09 18.31 14.06 19.41 14.06L21 14C25.19 14 27.8 14.16 28.83 14.44C29.73 14.69 30.31 15.27 30.56 16.17Z" fill="#C6AC83"/>
</svg>
